<svg width="71" height="72" viewBox="0 0 71 72" fill="none" xmlns="http://www.w3.org/2000/svg">
<rect width="70.93" height="71" rx="9" fill="white"/>
<path d="M40.629 28.2059V28.445H57.2861V21.3712H47.4567C43.6869 21.3712 40.629 24.4323 40.629 28.2059Z" fill="#5981E3"/>
<path d="M25.0349 41.5519C24.7399 42.7801 23.6347 43.6895 22.3188 43.6895C21.0029 43.6895 19.8977 42.7754 19.6027 41.5519C16.6525 42.1613 13.8989 43.7832 12.2411 46.7177L15.9079 49.9194L17.0599 48.7522V59.4495H27.5777V48.7522L28.7297 49.9194L32.3964 46.7177C30.7387 43.7832 27.9898 42.1613 25.0349 41.5519Z" fill="#5981E3"/>
<path d="M62.0908 4.15639e-06C62.0908 4.15639e-06 62.0767 4.15639e-06 62.0721 4.15639e-06H8.8554C3.97112 -0.00468355 0.00468707 3.95643 4.15215e-06 8.84571V62.1402C-0.00467876 67.0295 3.95239 71 8.83667 71.0047C8.84135 71.0047 8.85072 71.0047 8.8554 71.0047H62.0767C66.961 71.0094 70.9274 67.0483 70.9321 62.159V8.86446C70.9368 3.97518 66.9798 0.00469186 62.0955 4.15639e-06H62.0908ZM11.4076 9.36604C11.3608 8.13317 12.3208 7.0925 13.557 7.04563C13.6273 7.04563 13.6975 7.04563 13.7678 7.04563H26.9361C27.5168 7.02687 28.0788 7.23782 28.5049 7.63159C28.9217 8.04411 29.1558 8.60663 29.1418 9.1926C29.1558 9.77387 28.9264 10.3364 28.5049 10.7349C28.0834 11.138 27.5168 11.3583 26.9361 11.3349H16.0624V17.4851H23.1196C23.7049 17.4664 24.2762 17.6727 24.7164 18.0617C25.166 18.4555 25.4189 19.0321 25.4048 19.6321C25.4142 20.2321 25.1613 20.804 24.7164 21.2025C24.2762 21.5869 23.7049 21.7931 23.1196 21.7791H16.0624V28.4778H26.9361C27.5355 28.4684 28.1115 28.7075 28.533 29.1341C28.9404 29.5466 29.1652 30.1091 29.1418 30.6857C29.1512 30.7795 29.1512 30.8732 29.1418 30.9623C29.1043 31.4358 28.8936 31.8811 28.5564 32.2186C28.1256 32.6264 27.5496 32.8421 26.9595 32.8186H13.7303C13.0888 32.8561 12.4612 32.6077 12.0164 32.1436C11.6043 31.6983 11.3842 31.1076 11.4076 30.4982V9.36604ZM35.2436 49.3522L31.4551 52.8351V59.7729C31.4551 61.8543 29.774 63.5465 27.6995 63.5465H16.8725C14.798 63.5465 13.1169 61.859 13.1169 59.7729V52.8351L9.44544 49.46C8.04057 48.2318 7.75491 46.1458 8.7711 44.5848C9.81071 42.8034 11.1922 41.294 12.8733 40.1127C14.7746 38.7767 17.3643 37.9657 20.0991 37.6845C20.4175 38.5845 21.2745 39.2267 22.2813 39.2267C23.2881 39.2267 24.1451 38.5845 24.4636 37.6845C27.1984 37.961 29.7927 38.772 31.6987 40.1127C33.4454 41.3456 34.869 42.9206 35.918 44.791C36.7609 46.2911 36.4706 48.1756 35.2389 49.3522H35.2436ZM44.2161 53.9977C44.5298 54.9587 45.0262 55.854 45.6725 56.6322C46.2906 57.3822 47.0727 57.9822 47.9531 58.3901C48.9084 58.8307 49.9527 59.051 51.0063 59.0323C52.1724 59.0651 53.329 58.7838 54.3546 58.226C55.3521 57.6119 56.2184 56.8009 56.8974 55.8493C57.2767 55.3056 57.8996 54.9774 58.5645 54.9727C59.164 54.9727 59.7259 55.2587 60.0818 55.7368C60.419 56.1259 60.6063 56.6181 60.6157 57.1338C60.6157 57.4056 60.5829 57.6728 60.5126 57.9307C60.419 58.2823 60.2504 58.6104 60.0209 58.8963C59.651 59.3698 59.2576 59.8198 58.8362 60.2464C58.2602 60.8371 57.6186 61.3574 56.9162 61.7933C56.0873 62.2996 55.2069 62.7121 54.2844 63.0215C53.1511 63.3825 51.9663 63.5606 50.7769 63.5372C49.1613 63.5653 47.555 63.27 46.0612 62.6606C44.6469 62.0512 43.3778 61.1558 42.3336 60.0261C41.2612 58.8354 40.437 57.4431 39.9125 55.929C38.7652 52.5304 38.7652 48.8553 39.9125 45.4567C40.4276 43.9144 41.2424 42.4894 42.3055 41.2612C43.3498 40.1315 44.6235 39.2314 46.0424 38.6267C47.5363 37.9985 49.1472 37.6798 50.7675 37.6985C51.9289 37.6798 53.0855 37.8392 54.1954 38.172C55.1132 38.4533 55.9983 38.8376 56.8272 39.3205C57.5203 39.7236 58.1665 40.2111 58.7472 40.769C59.178 41.1721 59.5714 41.6081 59.932 42.0768C60.3909 42.6769 60.6672 43.4035 60.7234 44.1582C60.7515 44.8004 60.4658 45.4145 59.9601 45.8083C59.5573 46.1223 59.0656 46.3005 58.5552 46.3098C57.9043 46.3333 57.2767 46.0427 56.8693 45.527C56.49 45.0629 56.0966 44.6504 55.6752 44.1816C55.2725 43.7738 54.8276 43.4082 54.3499 43.0941C53.8582 42.7847 53.3244 42.5409 52.7624 42.3722C52.1162 42.1894 51.4512 42.1003 50.7815 42.1097C49.7607 42.0909 48.7492 42.3065 47.8266 42.7425C46.9743 43.1597 46.2251 43.7597 45.635 44.5004C44.9981 45.302 44.5158 46.2208 44.2161 47.2052C43.5324 49.4225 43.5324 51.7945 44.2161 54.0071V53.9977ZM61.8473 10.8802V29.7951C61.8473 31.3889 60.5548 32.6827 58.9626 32.6827H37.9363C36.2036 32.6827 34.7941 31.2764 34.7941 29.5372C34.7941 22.726 40.3105 17.2039 47.1148 17.2039H57.3236V11.0911H47.4192C46.3468 11.0911 45.4711 10.2192 45.4711 9.14103C45.4711 7.84722 46.5201 6.79718 47.8126 6.79718H57.7638C59.9928 6.79718 61.8004 8.58788 61.8379 10.8052V10.8755L61.8473 10.8802Z" fill="#5981E3"/>
</svg>
