<svg width="226" height="30" viewBox="0 0 226 30" fill="none" xmlns="http://www.w3.org/2000/svg">
<path d="M10.5552 17.5574C10.4303 18.076 9.96472 18.4612 9.40955 18.4612C8.85437 18.4612 8.38884 18.076 8.26392 17.5574C7.01941 17.8155 5.85875 18.5012 5.16016 19.7409L6.70597 21.0943L7.19232 20.6V25.1196H11.6262V20.6L12.1125 21.0943L13.6584 19.7409C12.9598 18.5012 11.8003 17.8155 10.5552 17.5574Z" fill="#5981E3"/>
<path d="M17.1306 11.9182V12.0191H24.1541V9.0293H20.01C18.4197 9.0293 17.1306 10.3229 17.1306 11.9182Z" fill="#5981E3"/>
<path d="M26.1811 2.40999e-06H3.73354C1.67362 -0.002318 0.00231563 1.67128 2.40253e-06 3.7376C2.40253e-06 3.73992 2.40253e-06 3.74282 2.40253e-06 3.74514V26.2549C-0.00231082 28.3212 1.6661 29.9977 3.72603 30H26.1735C28.2335 30.0023 29.9048 28.3287 29.9071 26.2624V3.74514C29.9094 1.67882 28.241 0.00232282 26.1811 2.40999e-06ZM4.81093 3.95688C4.79127 3.43537 5.19666 2.99681 5.71656 2.97709C5.74605 2.97593 5.77612 2.97651 5.80561 2.97767H11.3579C11.6026 2.96955 11.8402 3.0583 12.0201 3.22421C12.1965 3.39766 12.2936 3.63666 12.2884 3.88437C12.2948 4.13033 12.1971 4.36701 12.0201 4.53698C11.8425 4.70753 11.6037 4.79919 11.3579 4.79107H6.77428V7.38993H9.75082C9.99775 7.38239 10.2383 7.4694 10.424 7.63299C10.6142 7.80006 10.7206 8.04312 10.7154 8.29721C10.7195 8.55071 10.6131 8.7932 10.424 8.96142C10.2378 9.12385 9.99775 9.21029 9.75082 9.20449H6.77428V12.0348H11.3579C11.6106 12.0313 11.8535 12.1311 12.0311 12.3115C12.204 12.485 12.2971 12.7228 12.2884 12.9676C12.2925 13.0065 12.2925 13.0459 12.2884 13.0854C12.2717 13.2861 12.1849 13.474 12.0426 13.6167C11.8616 13.789 11.6187 13.8807 11.3695 13.8708H5.79116C5.52051 13.8859 5.2568 13.7821 5.06885 13.586C4.89536 13.3975 4.80283 13.148 4.81151 12.8916L4.81093 3.95688ZM14.8613 20.8524L13.2634 22.3229V25.2536C13.2634 26.1336 12.5544 26.8471 11.6795 26.8471H7.1149C6.23992 26.8471 5.53034 26.1336 5.53034 25.2536V22.3229L3.98279 20.8965C3.39119 20.3767 3.26974 19.4961 3.69769 18.8365C4.13605 18.0841 4.71782 17.4466 5.42798 16.946C6.22893 16.3809 7.32193 16.0387 8.47507 15.9203C8.60924 16.2997 8.97068 16.5718 9.39516 16.5718C9.81964 16.5718 10.1817 16.2997 10.3158 15.9198C11.469 16.0375 12.5625 16.3792 13.3658 16.946C14.1031 17.4663 14.7023 18.1334 15.1453 18.9224C15.5003 19.5558 15.3789 20.3523 14.859 20.8495L14.8613 20.8524ZM18.644 22.8154C18.777 23.2215 18.9852 23.5992 19.2576 23.9281C19.5184 24.2448 19.8469 24.4983 20.2187 24.67C20.6218 24.8562 21.0619 24.9485 21.5055 24.9409C21.9982 24.9548 22.4857 24.8371 22.9177 24.5998C23.3387 24.3399 23.703 23.9983 23.9899 23.5945C24.1501 23.3642 24.412 23.2256 24.6925 23.2238C24.9446 23.2244 25.1812 23.3439 25.3321 23.5464C25.4738 23.7105 25.5536 23.9194 25.5576 24.1363C25.5582 24.2506 25.5432 24.3637 25.5131 24.4739C25.4732 24.623 25.4027 24.7617 25.3061 24.8818C25.1505 25.0813 24.984 25.2722 24.807 25.4532C24.5647 25.7032 24.2929 25.9225 23.9974 26.1058C23.6481 26.3198 23.2762 26.4939 22.8882 26.625C22.4105 26.7781 21.9109 26.8518 21.4095 26.8437C20.7282 26.8564 20.0516 26.73 19.4201 26.473C18.8244 26.216 18.2895 25.8372 17.8488 25.3603C17.3966 24.8574 17.0496 24.268 16.8281 23.6282C16.3447 22.193 16.3447 20.6383 16.8281 19.2031C17.045 18.5511 17.3885 17.949 17.8373 17.4303C18.2779 16.9523 18.8152 16.573 19.4126 16.3177C20.0429 16.0514 20.7213 15.9174 21.4054 15.9244C21.8947 15.9163 22.3822 15.9836 22.8512 16.1245C23.2381 16.2435 23.6105 16.4065 23.9604 16.6107C24.2536 16.7818 24.5254 16.9871 24.77 17.2227C24.951 17.3932 25.1176 17.5783 25.2691 17.7755C25.4628 18.0296 25.5785 18.3353 25.6016 18.6544C25.6132 18.9253 25.4935 19.1852 25.2801 19.3516C25.1112 19.4845 24.9036 19.5587 24.6885 19.5628C24.4132 19.5721 24.1495 19.4497 23.9783 19.2327C23.8193 19.0361 23.6527 18.862 23.4752 18.6654C23.3057 18.4931 23.1184 18.3388 22.9171 18.2054C22.7089 18.0737 22.484 17.9716 22.248 17.9014C21.9762 17.8237 21.6946 17.7865 21.4124 17.79C20.9821 17.783 20.5559 17.8741 20.1661 18.0569C19.8076 18.2332 19.4918 18.4861 19.242 18.7988C18.9725 19.1382 18.7695 19.5263 18.6428 19.941C18.3543 20.8773 18.3543 21.8791 18.6428 22.8154H18.644ZM26.0775 4.59673V12.5888C26.0775 13.2629 25.5328 13.8088 24.8614 13.8088H15.9948C15.2638 13.8088 14.671 13.2142 14.671 12.4809C14.671 9.60244 16.997 7.26927 19.8665 7.26927H24.1709V4.68607H19.9949C19.5415 4.68607 19.1743 4.3177 19.1743 3.8629C19.1743 3.31587 19.6167 2.87209 20.1621 2.87209H24.3588C25.298 2.87209 26.0608 3.62796 26.077 4.56599L26.0775 4.59673Z" fill="#5981E3"/>
<path d="M72.7001 6.69456C72.9881 6.97823 73.1472 7.36806 73.1408 7.77239V21.8335C73.1483 22.2384 72.9887 22.6283 72.7001 22.9114C72.0883 23.4601 71.163 23.4601 70.5512 22.9114C70.2608 22.6289 70.0995 22.239 70.1053 21.8335V7.79385C70.0995 7.38836 70.2608 6.99795 70.5512 6.71602C71.163 6.16725 72.0883 6.16725 72.7001 6.71602V6.69456Z" fill="#5981E3"/>
<path d="M44.9708 9.11981V13.2049H49.6505C50.0443 13.1881 50.4295 13.3256 50.725 13.5878C51.2975 14.1151 51.3357 15.0085 50.81 15.5828C50.7828 15.6124 50.7545 15.6408 50.725 15.668C50.4295 15.9297 50.0437 16.0648 49.6505 16.0451H44.9708V20.5131H52.1597C52.5576 20.4893 52.9474 20.6337 53.2342 20.9116C53.7651 21.4865 53.7651 22.374 53.2342 22.9489C52.9462 23.2245 52.5576 23.3689 52.1597 23.3474H43.4401C43.0138 23.3695 42.5986 23.2065 42.3008 22.9002C42.0388 22.6038 41.8989 22.2186 41.9087 21.8224V7.80994C41.8717 6.99838 42.4974 6.3098 43.307 6.27267C43.3585 6.27035 43.41 6.27093 43.4615 6.27383H52.1597C52.5461 6.25817 52.922 6.40029 53.2019 6.66714C53.4777 6.93457 53.6298 7.30583 53.6211 7.69102C53.6327 8.08027 53.4829 8.45676 53.2076 8.73114C52.9167 9.00205 52.5293 9.14418 52.1331 9.12445L44.9708 9.11981Z" fill="#5981E3"/>
<path d="M67.9772 6.65667C68.5497 7.18398 68.5879 8.07734 68.0622 8.65164C68.035 8.68123 68.0067 8.70965 67.9772 8.73692C67.6817 8.99855 67.2965 9.13545 66.9027 9.11979H62.9696V21.8333C62.9772 22.2383 62.8175 22.6281 62.529 22.9112C61.9067 23.4646 60.9699 23.4646 60.3476 22.9112C60.059 22.6281 59.9 22.2383 59.9069 21.8333V9.11979H56.0438C55.6489 9.13603 55.2631 8.99681 54.9694 8.7317C54.6802 8.46717 54.5212 8.08894 54.5339 7.6968C54.5206 7.30581 54.6796 6.92932 54.9694 6.66769C55.2631 6.40259 55.6489 6.26336 56.0438 6.2796H66.9449C67.3231 6.27554 67.6904 6.40955 67.9772 6.65667Z" fill="#5981E3"/>
<path d="M135.11 9.11995H131.177V21.8335C131.182 22.2378 131.023 22.6271 130.736 22.9113C130.112 23.4659 129.174 23.4659 128.55 22.9113C128.263 22.6277 128.105 22.2378 128.114 21.8335V9.11995H124.203C123.808 9.13504 123.423 8.9958 123.129 8.73186C122.56 8.17786 122.547 7.26711 123.099 6.69687C123.109 6.687 123.118 6.67714 123.129 6.66728C123.423 6.40333 123.808 6.2641 124.203 6.27918H135.11C135.503 6.26468 135.887 6.39926 136.184 6.65625C136.481 6.91962 136.648 7.29959 136.641 7.69638C136.65 8.09375 136.483 8.47488 136.184 8.73651C135.888 8.99755 135.504 9.13504 135.11 9.11995Z" fill="#5981E3"/>
<path d="M149.847 21.3543C149.765 21.1205 149.668 20.892 149.557 20.6698L144.109 7.56814C143.965 7.22588 143.749 6.91901 143.475 6.66782C143.178 6.40852 142.794 6.27045 142.401 6.27973C142.003 6.26581 141.616 6.41084 141.326 6.68406C141.069 6.94221 140.865 7.24792 140.724 7.58438L135.249 20.6593C135.135 20.8995 135.035 21.146 134.949 21.3978C134.892 21.5724 134.862 21.7534 134.857 21.9367C134.847 22.3416 135.026 22.7286 135.341 22.9821C135.632 23.2141 135.995 23.3377 136.367 23.3325C136.657 23.3423 136.945 23.2675 137.194 23.1167C137.458 22.927 137.658 22.6624 137.769 22.3567L139.015 19.2526H145.667L146.741 21.8828C146.871 22.2784 147.078 22.6445 147.349 22.9606C147.619 23.2217 147.984 23.362 148.359 23.3487C148.75 23.3533 149.13 23.2199 149.433 22.9716C149.764 22.7001 149.95 22.29 149.938 21.8613C149.935 21.6884 149.904 21.5167 149.847 21.3543ZM144.582 16.5041H140.112L142.363 10.9368L144.582 16.5041Z" fill="#5981E3"/>
<path d="M106.548 6.69437C106.833 6.97978 106.99 7.36845 106.984 7.7722V16.8915C106.994 17.8127 106.828 18.7275 106.495 19.586C106.187 20.3837 105.714 21.1071 105.109 21.7092C104.494 22.3119 103.763 22.7812 102.96 23.0887C101.163 23.7355 99.1969 23.7355 97.399 23.0887C95.7791 22.4935 94.4918 21.2295 93.8638 19.6179C93.5359 18.7582 93.3751 17.8434 93.3907 16.9234V7.76118C93.3832 7.35627 93.5428 6.96644 93.8314 6.68335C94.1206 6.4078 94.5069 6.25813 94.9059 6.26858C95.3044 6.26161 95.6895 6.41012 95.9804 6.68335C96.2661 6.96818 96.4251 7.35685 96.4211 7.76118V16.7023C96.3476 17.7494 96.6958 18.7826 97.388 19.5698C98.9911 20.8982 101.308 20.8982 102.911 19.5698C103.611 18.7588 103.963 17.7024 103.889 16.6327V7.79425C103.884 7.38875 104.045 6.99834 104.335 6.71641C104.625 6.44087 105.011 6.29178 105.41 6.30164C105.827 6.27032 106.239 6.41244 106.548 6.69437Z" fill="#5981E3"/>
<path d="M112.829 9.11993V13.205H117.509C117.902 13.1894 118.287 13.3269 118.583 13.5879C119.156 14.1152 119.194 15.0086 118.668 15.5829C118.641 15.6125 118.613 15.6409 118.583 15.6682C118.287 15.928 117.902 16.0632 117.509 16.0452H112.829V20.5132H120.023C120.421 20.4917 120.81 20.6362 121.098 20.9117C121.621 21.4895 121.621 22.3712 121.098 22.949C120.809 23.2234 120.42 23.3679 120.023 23.3476H111.298C110.873 23.369 110.46 23.206 110.164 22.9003C109.9 22.6044 109.76 22.2187 109.772 21.8225V7.81006C109.761 7.41095 109.908 7.02344 110.18 6.73223C110.484 6.43173 110.899 6.2722 111.325 6.29019H120.023C120.409 6.27626 120.784 6.41781 121.065 6.6835C121.34 6.9515 121.49 7.32335 121.479 7.70738C121.483 8.09257 121.329 8.46267 121.054 8.73126C120.772 8.99463 120.397 9.13617 120.012 9.12457L112.829 9.11993Z" fill="#5981E3"/>
<path d="M175.829 9.2708V13.3611H180.504C180.888 13.3495 181.263 13.4841 181.552 13.7382C182.124 14.2655 182.162 15.1589 181.637 15.7332C181.61 15.7628 181.581 15.7912 181.552 15.8185C181.263 16.0737 180.888 16.2083 180.504 16.1955H175.829V20.642H183.018C183.416 20.6194 183.805 20.7638 184.093 21.0405C184.624 21.6154 184.624 22.503 184.093 23.0779C183.805 23.3534 183.416 23.4979 183.018 23.4764H174.299C173.872 23.4984 173.457 23.3354 173.159 23.0291C172.896 22.7333 172.755 22.3475 172.767 21.9513V7.93889C172.756 7.53862 172.905 7.15053 173.181 6.86106C173.482 6.55998 173.895 6.39987 174.32 6.41902H183.018C183.405 6.40393 183.78 6.54606 184.06 6.81233C184.618 7.38257 184.618 8.29565 184.06 8.86589C183.779 9.131 183.404 9.27254 183.018 9.2592L175.829 9.2708Z" fill="#5981E3"/>
<path d="M159.475 12.6445C159.241 13.3964 159.126 14.1801 159.131 14.9673C159.126 15.7423 159.242 16.5132 159.475 17.2523C159.688 17.9119 160.022 18.5256 160.458 19.0634C160.877 19.5704 161.404 19.9776 162 20.2543C162.648 20.5484 163.352 20.6958 164.063 20.6853C164.854 20.7132 165.637 20.527 166.331 20.1464C167.005 19.7293 167.588 19.1794 168.045 18.5297C168.305 18.1596 168.727 17.9386 169.178 17.9368C169.579 17.9287 169.959 18.1103 170.204 18.427C170.436 18.6892 170.565 19.0257 170.57 19.3755C170.569 19.557 170.545 19.738 170.5 19.9144C170.433 20.1528 170.318 20.375 170.162 20.5664C169.915 20.889 169.649 21.1964 169.366 21.4882C168.975 21.885 168.539 22.2336 168.066 22.5283C167.505 22.8758 166.905 23.1543 166.277 23.3585C165.517 23.6027 164.722 23.7228 163.924 23.7141C162.831 23.7222 161.747 23.5093 160.738 23.0887C159.779 22.6693 158.919 22.0521 158.213 21.2776C157.497 20.469 156.948 19.5257 156.601 18.5018C156.207 17.3579 156.012 16.1547 156.026 14.9446C156.006 13.7485 156.192 12.5581 156.574 11.4252C156.924 10.399 157.472 9.45219 158.186 8.63889C158.889 7.85923 159.753 7.24142 160.717 6.82781C161.726 6.39853 162.812 6.18216 163.908 6.19202C164.694 6.18216 165.476 6.29121 166.229 6.51513C166.853 6.70657 167.453 6.96877 168.018 7.29653C168.488 7.56976 168.923 7.89926 169.313 8.27749C169.604 8.55129 169.872 8.84831 170.114 9.16678C170.431 9.57866 170.618 10.0758 170.651 10.595C170.665 11.0359 170.465 11.4565 170.114 11.7216C169.844 11.9351 169.512 12.054 169.168 12.061C168.723 12.0714 168.3 11.8718 168.024 11.522C167.777 11.2094 167.486 10.9025 167.217 10.6113C166.948 10.3334 166.649 10.0857 166.326 9.87276C165.993 9.65929 165.631 9.49396 165.251 9.38258C164.816 9.25902 164.366 9.19927 163.914 9.20449C163.225 9.19289 162.543 9.34081 161.92 9.63551C161.342 9.91456 160.834 10.3195 160.432 10.8213C160.007 11.366 159.683 11.9826 159.476 12.6428L159.475 12.6445Z" fill="#5981E3"/>
<path d="M198.277 21.4024C198.168 21.1216 198.016 20.8594 197.826 20.6262L194.967 16.8161C195.856 16.4732 196.63 15.8867 197.203 15.1239C197.858 14.1917 198.198 13.0738 198.175 11.9333C198.254 10.4274 197.689 8.95912 196.622 7.89638C195.591 6.9102 194.119 6.40899 192.244 6.40899H187.897C187.082 6.37883 186.396 7.01694 186.366 7.83488C186.364 7.87143 186.364 7.90798 186.366 7.94452V21.9569C186.358 22.3607 186.515 22.7499 186.801 23.0348C187.425 23.5893 188.364 23.5893 188.988 23.0348C189.275 22.7505 189.434 22.3613 189.428 21.9569V17.3544H191.647L195.37 22.6252C195.546 22.8572 195.756 23.0609 195.994 23.2291C196.252 23.4031 196.558 23.493 196.869 23.4878C197.3 23.511 197.72 23.3416 198.014 23.0243C198.257 22.7656 198.394 22.4257 198.401 22.0706C198.399 21.8421 198.357 21.6164 198.277 21.4024ZM195.054 11.9113C195.089 12.6074 194.841 13.2885 194.366 13.7978C193.756 14.321 192.962 14.5757 192.163 14.5038H189.396V9.27064H192.115C192.905 9.22017 193.686 9.47019 194.301 9.97137C194.828 10.4738 195.109 11.1833 195.07 11.9119L195.054 11.9113Z" fill="#5981E3"/>
<path d="M225.898 21.4889C225.844 21.3218 225.742 21.0956 225.608 20.7992L220.154 7.6975C220.012 7.35524 219.797 7.04837 219.526 6.79719C219.227 6.54078 218.844 6.40272 218.451 6.4091C218.053 6.39343 217.666 6.53962 217.377 6.81343C217.118 7.06925 216.913 7.37555 216.775 7.71375L211.295 20.7887C211.149 21.1176 211.053 21.3601 210.999 21.5272C210.943 21.7018 210.912 21.8828 210.908 22.0661C210.897 22.4699 211.074 22.8562 211.386 23.1114C211.677 23.3435 212.04 23.467 212.412 23.4618C213.043 23.5019 213.621 23.1068 213.814 22.5023L215.066 19.3982H221.718L222.792 22.0284C222.922 22.4252 223.13 22.7918 223.405 23.1062C223.671 23.3696 224.035 23.5106 224.409 23.4943C224.8 23.4984 225.181 23.365 225.484 23.1172C225.814 22.8452 226 22.4356 225.989 22.0069C225.988 21.8306 225.956 21.6554 225.897 21.4895L225.898 21.4889ZM220.627 16.6387H216.157L218.408 11.0714L220.627 16.6387Z" fill="#5981E3"/>
<path d="M211.155 9.27066H207.222V21.99C207.23 22.3949 207.071 22.7853 206.782 23.0679C206.492 23.3428 206.106 23.4919 205.707 23.4826C205.309 23.4896 204.924 23.3411 204.633 23.0679C204.344 22.7848 204.185 22.3949 204.192 21.99V9.27066H200.281C199.886 9.28748 199.5 9.14826 199.206 8.88257C198.638 8.32857 198.625 7.41781 199.177 6.84757C199.187 6.83771 199.196 6.82785 199.206 6.81799C199.501 6.55346 199.886 6.41424 200.281 6.4299H211.188C211.58 6.41482 211.964 6.5494 212.262 6.80697C212.561 7.06859 212.728 7.44972 212.719 7.84709C212.73 8.24504 212.562 8.62675 212.262 8.88721C211.959 9.15696 211.56 9.29503 211.155 9.27066Z" fill="#5981E3"/>
<path d="M89.3987 20.7261C89.9631 20.0062 90.4078 19.1987 90.7149 18.3361C91.1186 17.1904 91.3164 15.9808 91.2973 14.7655C91.3059 13.5624 91.1093 12.3668 90.7149 11.2304C90.3529 10.21 89.7966 9.26902 89.0777 8.46036C88.3664 7.68592 87.5013 7.0687 86.5378 6.64871C84.4605 5.78377 82.1259 5.78377 80.0486 6.64871C79.0892 7.0687 78.2276 7.68592 77.5203 8.46036C76.7997 9.26728 76.2434 10.2088 75.8831 11.2304C75.4887 12.3668 75.2915 13.5624 75.3008 14.7655C75.2938 15.9588 75.491 17.1445 75.8831 18.2717C76.2393 19.3043 76.7934 20.2568 77.5139 21.0765C78.2183 21.8637 79.0823 22.4913 80.0481 22.9171C81.8067 23.6527 83.7625 23.7664 85.5934 23.2385C86.1729 23.068 86.7321 22.8324 87.2595 22.5372C87.5788 22.84 89.294 23.6104 89.7995 23.6121C90.3182 23.622 89.5757 20.8241 89.3975 20.7255L89.3987 20.7261ZM85.1059 20.2202C84.5444 20.4424 83.9447 20.5526 83.3409 20.5451C81.9883 20.5747 80.6975 19.9754 79.8457 18.9208C79.405 18.3796 79.0707 17.7589 78.8614 17.0917C78.6214 16.3364 78.5034 15.5475 78.5121 14.7545C78.5017 13.9615 78.6197 13.172 78.8614 12.4173C79.0678 11.7589 79.3981 11.1457 79.8341 10.6114C80.2482 10.116 80.7652 9.71744 81.3487 9.44247C81.979 9.1472 82.6684 8.99927 83.3641 9.01029C84.0523 9.00101 84.7335 9.14894 85.3563 9.44247C85.9427 9.72092 86.4644 10.1189 86.8883 10.6114C87.3249 11.1463 87.6568 11.7589 87.8668 12.4173C88.1085 13.1726 88.2265 13.9615 88.2161 14.7545C88.2242 15.5475 88.1062 16.3364 87.8668 17.0917C87.7129 17.5819 87.4914 18.0483 87.2087 18.4764C87.2399 18.4289 85.1273 20.2115 85.1059 20.2202Z" fill="#5981E3"/>
<path d="M90.2505 21.309L87.8274 18.8708C87.1462 19.5321 86.0399 19.7131 85.5582 20.5519C85.5044 20.6459 85.4315 20.7068 85.3517 20.7416L88.0761 23.4832C88.3606 23.7843 88.7574 23.9525 89.1709 23.9478C89.5751 23.938 89.9579 23.7657 90.2344 23.4704C90.5304 23.192 90.7039 22.8075 90.7178 22.4014C90.7178 21.9884 90.5495 21.5933 90.2505 21.309Z" fill="#5981E3"/>
<path d="M87.9819 20.6298C88.2606 20.3833 88.5729 20.1251 88.9187 19.9679L87.0051 18.0321C86.7212 17.7305 86.325 17.5611 85.9115 17.5645C85.5073 17.5732 85.1239 17.7444 84.8469 18.0396C84.5502 18.3169 84.375 18.701 84.3605 19.1076C84.3594 19.5206 84.5271 19.9157 84.8255 20.2005L86.7206 22.1178C87.0496 21.5498 87.4881 21.0666 87.9819 20.6298Z" fill="#5981E3"/>
</svg>
