<svg width="249" height="71" viewBox="0 0 249 71" fill="none" xmlns="http://www.w3.org/2000/svg">
<g clip-path="url(#clip0_12_25)">
<path d="M128.321 6.65654C128.776 7.11125 129.019 7.73472 129 8.37693V30.2685C129.019 30.9107 128.771 31.5342 128.321 31.9889C127.858 32.4202 127.244 32.6546 126.612 32.6358C125.984 32.6592 125.371 32.4249 124.912 31.9889C124.448 31.5389 124.196 30.9154 124.214 30.2685V8.37693C124.196 7.73003 124.448 7.10656 124.912 6.65654C125.371 6.22059 125.98 5.99089 126.612 6.00964C127.244 5.99089 127.858 6.22059 128.321 6.65654Z" fill="#5980e3"/>
<path d="M84.9996 10.4395V16.8054H92.2628C92.8669 16.7914 93.4523 17.0023 93.9065 17.3961C94.8056 18.2305 94.8571 19.6321 94.0283 20.5322C93.9908 20.5743 93.9487 20.6118 93.9065 20.654C93.4523 21.0478 92.8622 21.2541 92.2628 21.2353H84.9996V28.2012H96.2339C96.8474 28.1731 97.4468 28.3934 97.8964 28.82C98.7299 29.7201 98.7299 31.1123 97.8964 32.0124C97.4515 32.4342 96.8474 32.6593 96.2339 32.6311H82.6113C81.9323 32.678 81.2673 32.4202 80.7944 31.9327C80.3776 31.4686 80.1575 30.8639 80.1762 30.2404V8.41444C80.1153 7.14876 81.0847 6.07527 82.3491 6.01433C82.4334 6.01433 82.5177 6.01433 82.602 6.01433H96.2246C96.8287 5.99089 97.4187 6.20653 97.8589 6.62373C98.2897 7.04563 98.5286 7.6269 98.5145 8.23162C98.5286 8.83164 98.2944 9.41292 97.8589 9.83012C97.414 10.2426 96.8287 10.4583 96.2246 10.4395H84.9996Z" fill="#5980e3"/>
<path d="M120.955 6.60498C121.419 7.01749 121.676 7.61283 121.662 8.23161C121.676 8.85039 121.414 9.44104 120.955 9.84887C120.501 10.2426 119.915 10.4536 119.311 10.4395H113.163V30.2685C113.181 30.9107 112.933 31.5342 112.474 31.9889C112.015 32.4249 111.397 32.6546 110.765 32.6358C110.133 32.6546 109.519 32.4202 109.056 31.9889C108.602 31.5342 108.358 30.9107 108.377 30.2685V10.4395H102.266C101.652 10.463 101.053 10.2473 100.594 9.83949C100.154 9.43635 99.9053 8.86445 99.9147 8.26442C99.8913 7.65033 100.144 7.05968 100.594 6.64717C101.053 6.23934 101.652 6.0237 102.266 6.04714H119.349C119.934 6.03308 120.505 6.22996 120.955 6.60029V6.60498Z" fill="#5980e3"/>
<path d="M225.862 10.4395H219.713V30.2685C219.727 30.9107 219.479 31.5342 219.025 31.9889C218.051 32.8514 216.585 32.8514 215.611 31.9889C215.152 31.5389 214.908 30.9154 214.932 30.2685V10.4395H208.821C208.202 10.463 207.603 10.2473 207.139 9.8395C206.69 9.42698 206.442 8.84102 206.46 8.23162C206.446 7.61753 206.695 7.03156 207.139 6.61436C207.603 6.20653 208.202 5.99089 208.821 6.01433H225.866C226.47 6.00027 227.056 6.21122 227.51 6.60498C227.974 7.0175 228.231 7.61284 228.217 8.23162C228.231 8.85039 227.969 9.44105 227.51 9.84888C227.056 10.2426 226.47 10.4536 225.866 10.4395H225.862Z" fill="#5980e3"/>
<path d="M248.892 29.5232C248.813 29.2794 248.649 28.9138 248.438 28.4497L239.92 8.02069C239.695 7.48629 239.358 7.00814 238.932 6.61906C238.463 6.20654 237.855 5.99091 237.232 6.00966C236.609 5.98622 236 6.21123 235.541 6.63781C235.153 7.04564 234.848 7.52379 234.633 8.04881L226.096 28.431C225.871 28.9513 225.717 29.3404 225.632 29.5841C225.543 29.8654 225.492 30.156 225.487 30.4467C225.468 31.0795 225.749 31.6795 226.241 32.0733C226.695 32.4389 227.267 32.6358 227.847 32.6265C228.302 32.6405 228.746 32.5233 229.135 32.2889C229.552 31.9983 229.87 31.5811 230.044 31.0983L231.959 26.2605H242.35L244.013 30.3623C244.205 30.967 244.514 31.5295 244.921 32.0171C245.343 32.4296 245.914 32.6499 246.499 32.6265C247.122 32.6358 247.731 32.4296 248.218 32.0358C248.728 31.6092 249.019 30.967 249 30.3014C249.005 30.0388 248.967 29.7716 248.892 29.5185V29.5232ZM240.655 21.9854H233.673L237.19 13.3131L240.66 21.9854H240.655Z" fill="#5980e3"/>
<path d="M181.196 6.65654C181.65 7.11124 181.903 7.73002 181.884 8.37692V22.5572C181.903 23.9964 181.641 25.4261 181.121 26.7668C180.639 28.0137 179.899 29.1435 178.948 30.0857C177.984 31.0185 176.841 31.7498 175.586 32.2327C174.195 32.7577 172.72 33.0155 171.235 32.9968C169.756 33.0155 168.285 32.7624 166.894 32.2514C164.352 31.3232 162.333 29.331 161.373 26.7949C160.868 25.4636 160.615 24.0479 160.629 22.6229V8.37692C160.605 7.73471 160.858 7.10655 161.317 6.65654C161.776 6.22058 162.394 5.99088 163.026 6.00963C163.659 5.99088 164.272 6.22527 164.736 6.65654C165.19 7.11124 165.433 7.73471 165.415 8.37692V22.2666C165.302 23.8979 165.845 25.5058 166.923 26.7387C168.084 27.8262 169.648 28.3794 171.235 28.2669C172.832 28.3794 174.406 27.8075 175.558 26.6918C176.644 25.4355 177.192 23.8042 177.094 22.1447V8.37224C177.07 7.73002 177.323 7.10187 177.782 6.65185C178.756 5.78931 180.217 5.78931 181.187 6.65185L181.196 6.65654Z" fill="#5980e3"/>
<path d="M191.04 10.4395V16.8054H198.359C198.963 16.7914 199.548 17.0023 200.003 17.3961C200.902 18.2117 200.967 19.604 200.148 20.504C200.101 20.5556 200.054 20.6025 200.003 20.6493C199.548 21.0431 198.958 21.2494 198.359 21.2306H191.049V28.1966H202.293C202.906 28.1684 203.501 28.3934 203.946 28.8153C204.779 29.7154 204.779 31.1076 203.946 32.0077C203.501 32.4296 202.906 32.6546 202.293 32.6264H188.67C187.991 32.6686 187.326 32.4155 186.853 31.928C186.436 31.4639 186.216 30.8592 186.235 30.2357V8.41444C186.183 7.13938 187.171 6.0659 188.445 6.01433C188.52 6.01433 188.595 6.01433 188.67 6.01433H202.293C202.892 5.99089 203.477 6.21121 203.918 6.62373C204.348 7.04563 204.587 7.6269 204.573 8.23162C204.587 8.83164 204.353 9.41292 203.918 9.83012C203.477 10.238 202.892 10.4583 202.293 10.4395H191.04Z" fill="#5980e3"/>
<path d="M108.892 43.9144V50.2804H116.211C116.811 50.2616 117.396 50.4725 117.846 50.871C118.74 51.682 118.81 53.0695 117.995 53.9649C117.949 54.0165 117.897 54.068 117.846 54.1149C117.396 54.5133 116.811 54.7243 116.211 54.7055H108.892V61.6621H120.126C120.744 61.6293 121.344 61.859 121.789 62.2903C122.627 63.1856 122.627 64.5779 121.789 65.4732C121.344 65.8998 120.74 66.1201 120.126 66.092H106.504C105.825 66.1342 105.16 65.881 104.687 65.3935C104.27 64.9294 104.05 64.3247 104.068 63.7013V41.8847C104.017 40.6096 105.005 39.5361 106.279 39.4846C106.354 39.4846 106.429 39.4846 106.504 39.4846H120.126C120.73 39.4658 121.32 39.6861 121.761 40.1033C122.632 40.9893 122.632 42.4144 121.761 43.305C121.32 43.7176 120.73 43.9379 120.126 43.9144L108.892 43.9238V43.9144Z" fill="#5980e3"/>
<path d="M83.3465 49.2115C82.9813 50.3882 82.7986 51.6163 82.8127 52.8492C82.8033 54.0586 82.9859 55.2587 83.3465 56.4119C83.6743 57.4432 84.1941 58.4041 84.8825 59.2386C85.5428 60.012 86.3717 60.6355 87.2989 61.0574C88.3057 61.5168 89.4062 61.7465 90.5161 61.7324C91.7524 61.7699 92.9746 61.4746 94.0564 60.8792C95.11 60.237 96.0232 59.3886 96.735 58.3807C97.1565 57.7994 97.8355 57.4572 98.552 57.4713C99.1748 57.4619 99.7695 57.7479 100.149 58.2448C100.509 58.6573 100.711 59.1823 100.72 59.7261C100.72 60.0073 100.678 60.2886 100.612 60.5605C100.509 60.9355 100.327 61.2824 100.079 61.5777C99.6946 62.0793 99.2825 62.5574 98.8423 63.0028C98.2335 63.6262 97.5498 64.1747 96.8099 64.6294C95.9342 65.1732 94.9929 65.6091 94.0142 65.9279C92.8388 66.3029 91.6119 66.4857 90.3803 66.4717C88.6757 66.4857 86.9805 66.1576 85.4023 65.506C83.871 64.8685 82.4942 63.9075 81.3703 62.6887C80.2371 61.4324 79.3661 59.9605 78.8088 58.3619C77.61 54.7712 77.61 50.8897 78.8088 47.299C79.3661 45.6958 80.2324 44.2191 81.361 42.9535C82.4615 41.7393 83.8055 40.7737 85.3134 40.1268C86.8868 39.4517 88.582 39.1095 90.2913 39.1189C91.5229 39.1049 92.7452 39.2736 93.9252 39.6299C94.8993 39.9393 95.8406 40.3565 96.7209 40.8768C97.4562 41.3034 98.1399 41.819 98.7533 42.405C99.2029 42.8363 99.6197 43.3003 99.999 43.7972C100.481 44.4441 100.758 45.2176 100.8 46.0239C100.833 46.7036 100.528 47.3599 99.9896 47.7771C99.5682 48.1052 99.053 48.2928 98.5192 48.3021C97.8167 48.3349 97.1424 48.0256 96.7022 47.4771C96.3042 46.9943 95.878 46.5114 95.4378 46.0567C95.0164 45.6255 94.5481 45.2411 94.0376 44.9129C93.5178 44.5754 92.9512 44.3176 92.3565 44.1488C91.6774 43.9566 90.975 43.8582 90.2679 43.8676C89.1908 43.8488 88.1278 44.0785 87.1537 44.5426C86.2593 44.9598 85.4679 45.5739 84.8357 46.3333C84.166 47.1958 83.6603 48.1709 83.3465 49.2162V49.2115Z" fill="#5980e3"/>
<path d="M143.986 62.8668C143.808 62.4309 143.569 62.023 143.269 61.6574L138.802 55.6853C140.197 55.1555 141.41 54.2368 142.3 53.0414C143.349 51.5976 143.897 49.8537 143.873 48.0677C143.981 45.7286 143.086 43.455 141.419 41.8143C139.804 40.2674 137.495 39.4892 134.573 39.4892H127.778C127.136 39.4705 126.514 39.7142 126.059 40.1689C125.61 40.6237 125.366 41.2471 125.385 41.8893V63.7059C125.366 64.3434 125.615 64.9622 126.064 65.4169C127.038 66.2795 128.504 66.2795 129.478 65.4169C129.932 64.9669 130.176 64.3481 130.157 63.7059V56.5431H133.627L139.457 64.7232C139.729 65.0747 140.057 65.3794 140.422 65.6326C140.829 65.8998 141.307 66.0404 141.794 66.031C142.478 66.0732 143.147 65.806 143.611 65.3044C143.995 64.906 144.21 64.3763 144.22 63.8231C144.187 63.495 144.107 63.1715 143.986 62.8668ZM138.966 48.0677C139.017 49.1553 138.633 50.2147 137.893 51.0116C136.938 51.8273 135.702 52.221 134.451 52.1132H130.119V43.9332H134.381C135.617 43.8582 136.835 44.2473 137.795 45.0254C138.614 45.8176 139.04 46.9333 138.966 48.0724V48.0677Z" fill="#5980e3"/>
<path d="M187.134 62.9934C187.008 62.6278 186.858 62.2715 186.68 61.9293L178.171 41.5003C177.946 40.9659 177.604 40.4877 177.183 40.0893C176.715 39.6814 176.106 39.4658 175.483 39.4799C174.86 39.4611 174.261 39.6861 173.802 40.108C173.413 40.5159 173.104 40.994 172.893 41.519L164.356 61.9012C164.183 62.2809 164.028 62.67 163.893 63.0637C163.799 63.359 163.748 63.6637 163.748 63.9731C163.733 64.6013 164.01 65.206 164.501 65.5998C164.956 65.9654 165.527 66.1576 166.108 66.1435C166.562 66.1576 167.012 66.0404 167.396 65.806C167.817 65.5154 168.135 65.0982 168.304 64.6154L170.201 59.7355H180.592L182.254 63.8372C182.456 64.4513 182.784 65.0185 183.21 65.5013C183.626 65.9045 184.193 66.1201 184.774 66.1014C185.397 66.1201 186.01 65.9092 186.492 65.5107C187.012 65.0888 187.303 64.4513 187.284 63.7856C187.284 63.5137 187.232 63.2465 187.139 62.9934H187.134ZM178.906 55.4228H171.924L175.441 46.7505L178.911 55.4228H178.906Z" fill="#5980e3"/>
<path d="M164.103 43.9144H157.955V63.7528C157.973 64.3903 157.725 65.0091 157.276 65.4638C156.292 66.317 154.827 66.2982 153.862 65.4263C153.408 64.9763 153.164 64.3575 153.183 63.7153V43.9144H147.072C146.454 43.9379 145.854 43.7222 145.39 43.3144C144.501 42.4331 144.496 41.0034 145.372 40.1127C145.376 40.108 145.381 40.1033 145.39 40.0939C145.849 39.6814 146.454 39.4658 147.072 39.4845H164.108C164.712 39.4658 165.302 39.6767 165.761 40.0752C166.656 40.9049 166.712 42.3019 165.883 43.1972C165.845 43.2394 165.803 43.2816 165.761 43.3191C165.307 43.7175 164.712 43.9332 164.108 43.9097L164.103 43.9144Z" fill="#5980e3"/>
<path d="M137.57 16.0507C137.57 15.385 137.551 14.7147 137.551 14.049C137.411 14.3162 137.322 14.6116 137.294 14.9163C137.256 15.371 137.355 15.8257 137.575 16.2194C137.575 16.1632 137.575 16.1069 137.575 16.046L137.57 16.0507Z" fill="#5980e3"/>
<path d="M154.518 28.3138C155.309 27.2543 155.946 26.0871 156.391 24.8402C157.018 23.0588 157.327 21.1744 157.299 19.2852C157.313 17.4148 157.004 15.5538 156.391 13.7866C155.824 12.1974 154.958 10.7349 153.838 9.47856C152.729 8.27382 151.38 7.31284 149.877 6.66125C146.636 5.31588 142.998 5.31588 139.762 6.66125C138.268 7.31284 136.924 8.27382 135.819 9.47856C134.695 10.7349 133.828 12.1974 133.266 13.7866C132.653 15.5538 132.344 17.4148 132.358 19.2852C132.349 21.1416 132.653 22.9885 133.266 24.7417C133.824 26.3496 134.685 27.8309 135.809 29.106C136.91 30.3295 138.254 31.3092 139.762 31.9702C142.501 33.114 145.554 33.2921 148.406 32.4718C149.263 32.2186 150.092 31.8764 150.874 31.4452L152.274 32.8515C152.719 33.3202 153.337 33.5827 153.984 33.5734C154.611 33.5593 155.211 33.2921 155.641 32.828C156.105 32.3968 156.372 31.7967 156.395 31.1639C156.395 30.5217 156.133 29.9076 155.665 29.4669L154.513 28.3138H154.518ZM144.894 28.281C142.787 28.3278 140.773 27.395 139.443 25.7543C138.755 24.9105 138.235 23.9448 137.907 22.9088C137.533 21.7322 137.35 20.504 137.364 19.2712C137.345 18.0383 137.533 16.8101 137.907 15.6335C138.23 14.6069 138.745 13.6553 139.424 12.8256C140.071 12.0568 140.876 11.4333 141.785 11.0068C142.768 10.5474 143.84 10.3177 144.927 10.3317C145.999 10.3177 147.062 10.5474 148.032 11.0068C148.945 11.438 149.76 12.0568 150.42 12.8256C151.099 13.6553 151.619 14.6116 151.947 15.6335C152.321 16.8101 152.509 18.0383 152.49 19.2712C152.504 20.504 152.317 21.7322 151.947 22.9088C151.736 23.5839 151.431 24.2308 151.062 24.8355L150.603 24.3714C150.162 23.9026 149.544 23.6401 148.898 23.6448C148.27 23.6589 147.671 23.9261 147.24 24.3855C146.777 24.8167 146.505 25.4168 146.482 26.0496C146.482 26.6918 146.744 27.3059 147.207 27.7512L147.339 27.8872C146.552 28.1591 145.728 28.2997 144.889 28.2903L144.894 28.281Z" fill="#5980e3"/>
<path d="M40.629 28.2059V28.445H57.2861V21.3712H47.4567C43.6869 21.3712 40.629 24.4323 40.629 28.2059Z" fill="#5980e3"/>
<path d="M25.0349 41.5518C24.7399 42.78 23.6347 43.6894 22.3188 43.6894C21.0029 43.6894 19.8977 42.7753 19.6027 41.5518C16.6525 42.1612 13.8989 43.7832 12.2411 46.7177L15.9079 49.9194L17.0599 48.7521V59.4495H27.5777V48.7521L28.7297 49.9194L32.3964 46.7177C30.7387 43.7832 27.9898 42.1612 25.0349 41.5518Z" fill="#5980e3"/>
<path d="M62.0908 4.15639e-06C62.0908 4.15639e-06 62.0767 4.15639e-06 62.0721 4.15639e-06H8.8554C3.97112 -0.00468355 0.00468707 3.95643 4.15215e-06 8.84571V62.1402C-0.00467876 67.0295 3.95239 71 8.83667 71.0047C8.84135 71.0047 8.85072 71.0047 8.8554 71.0047H62.0767C66.961 71.0094 70.9275 67.0483 70.9321 62.159V8.86446C70.9368 3.97518 66.9798 0.00469186 62.0955 4.15639e-06H62.0908ZM11.4076 9.36604C11.3608 8.13317 12.3208 7.0925 13.557 7.04563C13.6273 7.04563 13.6975 7.04563 13.7678 7.04563H26.9361C27.5168 7.02688 28.0788 7.23782 28.5049 7.63159C28.9217 8.04411 29.1558 8.60663 29.1418 9.1926C29.1558 9.77387 28.9264 10.3364 28.5049 10.7349C28.0835 11.138 27.5168 11.3583 26.9361 11.3349H16.0624V17.4851H23.1196C23.7049 17.4664 24.2762 17.6727 24.7164 18.0617C25.166 18.4555 25.4189 19.0321 25.4048 19.6321C25.4142 20.2321 25.1613 20.804 24.7164 21.2025C24.2762 21.5869 23.7049 21.7931 23.1196 21.7791H16.0624V28.4778H26.9361C27.5356 28.4684 28.1115 28.7075 28.533 29.1341C28.9404 29.5466 29.1652 30.1091 29.1418 30.6857C29.1512 30.7795 29.1512 30.8732 29.1418 30.9623C29.1043 31.4358 28.8936 31.8811 28.5564 32.2186C28.1256 32.6264 27.5496 32.8421 26.9596 32.8186H13.7303C13.0888 32.8561 12.4612 32.6077 12.0164 32.1436C11.6043 31.6983 11.3842 31.1076 11.4076 30.4982V9.36604ZM35.2436 49.3522L31.4552 52.8351V59.7729C31.4552 61.8543 29.774 63.5466 27.6995 63.5466H16.8725C14.798 63.5466 13.1169 61.859 13.1169 59.7729V52.8351L9.44545 49.46C8.04057 48.2318 7.75491 46.1458 8.77111 44.5848C9.81071 42.8034 11.1922 41.294 12.8733 40.1127C14.7746 38.7767 17.3643 37.9657 20.0991 37.6845C20.4175 38.5845 21.2745 39.2267 22.2813 39.2267C23.2881 39.2267 24.1451 38.5845 24.4636 37.6845C27.1984 37.961 29.7927 38.772 31.6987 40.1127C33.4454 41.3456 34.869 42.9206 35.918 44.791C36.7609 46.2911 36.4706 48.1756 35.2389 49.3522H35.2436ZM44.2161 53.9977C44.5299 54.9587 45.0262 55.854 45.6725 56.6322C46.2906 57.3822 47.0727 57.9822 47.9531 58.3901C48.9084 58.8307 49.9527 59.051 51.0063 59.0323C52.1724 59.0651 53.3291 58.7838 54.3546 58.226C55.3521 57.6119 56.2184 56.8009 56.8974 55.8493C57.2767 55.3056 57.8996 54.9774 58.5646 54.9727C59.164 54.9727 59.7259 55.2587 60.0818 55.7368C60.419 56.1259 60.6063 56.6181 60.6157 57.1338C60.6157 57.4057 60.5829 57.6729 60.5126 57.9307C60.419 58.2823 60.2504 58.6104 60.0209 58.8963C59.651 59.3698 59.2576 59.8198 58.8362 60.2464C58.2602 60.8371 57.6186 61.3574 56.9162 61.7934C56.0873 62.2996 55.2069 62.7121 54.2844 63.0215C53.1511 63.3825 51.9663 63.5606 50.7769 63.5372C49.1613 63.5653 47.555 63.27 46.0612 62.6606C44.6469 62.0512 43.3779 61.1558 42.3336 60.0261C41.2612 58.8354 40.437 57.4432 39.9125 55.929C38.7652 52.5304 38.7652 48.8553 39.9125 45.4567C40.4276 43.9144 41.2424 42.4894 42.3055 41.2612C43.3498 40.1315 44.6235 39.2314 46.0424 38.6267C47.5363 37.9986 49.1472 37.6798 50.7675 37.6985C51.9289 37.6798 53.0855 37.8392 54.1954 38.172C55.1132 38.4533 55.9983 38.8377 56.8272 39.3205C57.5203 39.7236 58.1665 40.2111 58.7472 40.769C59.178 41.1721 59.5714 41.6081 59.932 42.0769C60.3909 42.6769 60.6672 43.4035 60.7234 44.1582C60.7515 44.8004 60.4658 45.4145 59.9601 45.8083C59.5573 46.1223 59.0656 46.3005 58.5552 46.3099C57.9043 46.3333 57.2768 46.0427 56.8693 45.527C56.49 45.0629 56.0967 44.6504 55.6752 44.1816C55.2725 43.7738 54.8276 43.4082 54.3499 43.0941C53.8582 42.7847 53.3244 42.5409 52.7624 42.3722C52.1162 42.1894 51.4512 42.1003 50.7815 42.1097C49.7607 42.0909 48.7492 42.3066 47.8266 42.7425C46.9743 43.1597 46.2251 43.7597 45.635 44.5004C44.9981 45.302 44.5158 46.2208 44.2161 47.2052C43.5324 49.4225 43.5324 51.7945 44.2161 54.0071V53.9977ZM61.8473 10.8802V29.7951C61.8473 31.3889 60.5548 32.6827 58.9626 32.6827H37.9363C36.2036 32.6827 34.7941 31.2764 34.7941 29.5372C34.7941 22.726 40.3105 17.2039 47.1148 17.2039H57.3236V11.0911H47.4192C46.3468 11.0911 45.4711 10.2192 45.4711 9.14103C45.4711 7.84722 46.5201 6.79718 47.8126 6.79718H57.7638C59.9928 6.79718 61.8005 8.58788 61.8379 10.8052V10.8755L61.8473 10.8802Z" fill="#5980e3"/>
</g>
<defs>
<clipPath id="clip0_12_25">
<rect width="249" height="71" fill="#5980e3"/>
</clipPath>
</defs>
</svg>
